<svg xmlns="http://www.w3.org/2000/svg" viewBox="0 0 24 24" fill="currentColor"><path d="M19.05 4.91A9.85 9.85 0 0 0 12 2C6.48 2 2 6.48 2 12c0 1.77.46 3.45 1.34 4.95L2 22l5.19-1.36A9.93 9.93 0 0 0 12 22c5.52 0 10-4.48 10-10 0-2.64-1.03-5.12-2.95-6.99zM12 20.5c-1.54 0-3-.44-4.23-1.27l-.3-.18-3.08.81.82-3-.2-.31A8.46 8.46 0 0 1 3.5 12C3.5 7.31 7.31 3.5 12 3.5c2.27 0 4.4.88 6 2.49A8.4 8.4 0 0 1 20.5 12c0 4.69-3.81 8.5-8.5 8.5zm4.64-6.28c-.25-.13-1.5-.74-1.73-.82-.23-.09-.4-.13-.57.13-.17.25-.66.82-.81.99-.15.17-.3.19-.55.06-.25-.13-1.06-.39-2.02-1.25-.75-.67-1.25-1.49-1.4-1.74-.15-.25-.02-.39.11-.51.11-.11.25-.29.37-.44.12-.15.17-.25.25-.42.08-.17.04-.32-.02-.45-.06-.13-.57-1.37-.78-1.88-.21-.5-.42-.43-.57-.44l-.49-.01c-.17 0-.44.06-.67.32-.23.25-.88.86-.88 2.1 0 1.24.9 2.44 1.03 2.61.13.17 1.77 2.71 4.29 3.8.6.26 1.07.41 1.43.53.6.19 1.15.16 1.58.1.48-.07 1.5-.61 1.71-1.2.21-.59.21-1.1.15-1.2-.06-.11-.23-.17-.48-.3z"/></svg>