<svg xmlns="http://www.w3.org/2000/svg" style="display:none">
<symbol id="icon-consultas" viewBox="0 0 24 24"><path d="M8 7V3m8 4V3M3 11h18M5 19h14a2 2 0 002-2v-7H3v7a2 2 0 002 2z"/></symbol>
<symbol id="icon-exames" viewBox="0 0 24 24"><path d="M9 12h6m-6 4h6m2 5H7a2 2 0 01-2-2V5a2 2 0 012-2h5.586a1 1 0 01.707.293l5.414 5.414a1 1 0 01.293.707V19a2 2 0 01-2 2z"/></symbol>
<symbol id="icon-cirurgias" viewBox="0 0 24 24"><path d="M12 8v8m-4-4h8M21 12a9 9 0 11-18 0 9 9 0 0118 0z"/></symbol>
<symbol id="icon-check" viewBox="0 0 24 24"><path d="M20 6L9 17l-5-5"/></symbol>
<symbol id="icon-arrow-right" viewBox="0 0 24 24"><path d="M5 12h14M13 5l7 7-7 7"/></symbol>
<symbol id="icon-whatsapp" viewBox="0 0 24 24"><path d="M19.05 4.91A9.85 9.85 0 0 0 12 2C6.48 2 2 6.48 2 12c0 1.77.46 3.45 1.34 4.95L2 22l5.19-1.36A9.93 9.93 0 0 0 12 22c5.52 0 10-4.48 10-10 0-2.64-1.03-5.12-2.95-6.99zM12 20.5c-1.54 0-3-.44-4.23-1.27l-.3-.18-3.08.81.82-3-.2-.31A8.46 8.46 0 0 1 3.5 12C3.5 7.31 7.31 3.5 12 3.5c2.27 0 4.4.88 6 2.49A8.4 8.4 0 0 1 20.5 12c0 4.69-3.81 8.5-8.5 8.5zm4.64-6.28c-.25-.13-1.5-.74-1.73-.82-.23-.09-.4-.13-.57.13-.17.25-.66.82-.81.99-.15.17-.3.19-.55.06-.25-.13-1.06-.39-2.02-1.25-.75-.67-1.25-1.49-1.4-1.74-.15-.25-.02-.39.11-.51.11-.11.25-.29.37-.44.12-.15.17-.25.25-.42.08-.17.04-.32-.02-.45-.06-.13-.57-1.37-.78-1.88-.21-.5-.42-.43-.57-.44l-.49-.01c-.17 0-.44.06-.67.32-.23.25-.88.86-.88 2.1 0 1.24.9 2.44 1.03 2.61.13.17 1.77 2.71 4.29 3.8.6.26 1.07.41 1.43.53.6.19 1.15.16 1.58.1.48-.07 1.5-.61 1.71-1.2.21-.59.21-1.1.15-1.2-.06-.11-.23-.17-.48-.3z"/></symbol>
<symbol id="icon-phone" viewBox="0 0 24 24"><path d="M22 16.92v3a2 2 0 01-2.18 2 19.79 0 01-8.63-3.07 19.5 0 01-6-6 19.79 0 01-3.07-8.67A2 2 0 014.11 2h3a2 2 0 012 1.72 12.84 0 00.7 2.81 2 2 0 01-.45 2.11L8.09 9.91a16 16 0 006 6l1.27-1.27a2 2 0 012.11-.45 12.84 0 002.81.7A2 2 0 0122 16.92z"/></symbol>
<symbol id="icon-location" viewBox="0 0 24 24"><path d="M21 10c0 7-9 13-9 13s-9-6-9-13a9 9 0 0118 0z"/><circle cx="12" cy="10" r="3"/></symbol>
<symbol id="icon-mail" viewBox="0 0 24 24"><path d="M4 4h16c1.1 0 2 .9 2 2v12c0 1.1-.9 2-2 2H4c-1.1 0-2-.9-2-2V6c0-1.1.9-2 2-2z"/><path d="M22 6l-10 7L2 6"/></symbol>
<symbol id="icon-menu" viewBox="0 0 24 24"><path d="M4 6h16M4 12h16M4 18h16"/></symbol>
<symbol id="icon-clock" viewBox="0 0 24 24"><circle cx="12" cy="12" r="10"/><path d="M12 6v6l4 2"/></symbol>
<symbol id="icon-user-md" viewBox="0 0 24 24"><path d="M16 21v-2a4 4 0 00-4-4H8a4 4 0 00-4 4v2"/><circle cx="9" cy="7" r="4"/><path d="M19 8v6M22 11h-6"/></symbol>
</svg>